<?xml version="1.0" encoding="utf-8" ?>
<svg xmlns="http://www.w3.org/2000/svg" xmlns:xlink="http://www.w3.org/1999/xlink" width="1024" height="1024" viewBox="0 0 1024 1024">
<path fill="#10b981" d="M 770.8 563.7 C 785.3 563.8 796.5 571.3 795.6 587 C 795.4 591.5 794.1 595.8 791.9 599.7 C 788.6 605.3 779.9 614.7 775.4 619.7 C 755.5 641.3 734.4 661.7 712.1 680.9 C 700.7 690.8 688.1 700.9 674.8 708.2 C 661.6 715.3 646.5 722.3 632.8 728.7 C 616 736.6 594.3 749.3 577 754.2 C 548.3 762.4 510.1 756.1 480.7 752.8 C 452.1 749.6 423.3 744.7 394.7 742.4 C 353 739.1 330.6 750.1 298.8 774.8 C 288.3 782.9 277.4 790.5 267.1 799.5 C 241.4 762.4 213.8 725.8 188.6 688.2 L 249.3 645.4 C 294.1 612.9 321.9 584.9 381.6 581.8 C 410.8 580.3 432.4 584.5 460.6 592.7 C 474 596.6 488.2 601.5 502.1 603.1 C 533.5 606.7 561.1 604.7 592.7 610 C 620.2 614.5 638.1 639.1 618.7 663.9 C 615.8 667.6 609.3 670.4 604.6 671 C 590.6 672.9 576 671.7 562 672 C 533.2 672.3 504.4 671.8 475.6 672.5 C 471 676.4 470.4 683.3 477.5 683.7 C 484.3 684.1 491.6 683.9 498.4 683.9 L 538.1 683.7 L 578.1 683.9 C 595 684 612.6 685.6 626.4 673.8 C 635.2 666.2 638.8 656.9 639.8 645.5 C 653.9 639.5 667.1 633.1 679.6 624.1 C 700.3 609.4 719.5 592.7 740 577.7 C 746.8 572.7 754 567.7 762 565.1 C 765.1 564.1 767.6 563.9 770.8 563.7 Z"/>
<path fill="#10b981" d="M 481.7 280.4 C 504.3 280.6 523.6 285.2 538.7 303.5 C 550.3 317.4 552.5 330.1 554 347.4 C 554.7 344.4 555.3 341.4 555.9 338.5 C 558.8 326.1 563.7 314.6 571.3 304.4 C 573.4 301.6 578.1 294.6 582.3 296.2 C 588.3 298.5 593.3 302.2 596.3 308 C 575.8 327.3 568.7 339.2 566.9 367.7 C 574.1 366.9 584.2 364.3 591.4 362.6 C 612 357.4 632.1 356.6 652.3 364.1 C 716.6 388.3 719.9 468.1 699 523.5 C 687.3 554.6 664.8 591.7 634.2 605.9 C 630.8 607.4 628.3 608.3 624.8 609.5 C 599.5 586 537.8 595.4 504.3 589.8 C 482.8 586.2 466.9 579.2 446.6 574.7 C 401.9 522.3 382.7 414.1 449.6 372 C 470.8 358.6 497.5 355.5 521.8 360.4 C 532.2 362.4 542.7 365.6 553 367.9 C 552.8 360.1 553 354.9 553.8 347.3 C 520.7 352.2 494.5 336.5 484.9 304.3 C 482.4 295.9 482.1 289 481.7 280.4 Z"/>
<path fill="#ecfdf5" d="M 481.7 391.6 C 487.2 391.3 491.5 393.2 493.3 398.6 C 496.4 408.1 486.4 411.3 480.9 415.1 C 472.1 421.3 464.8 429.8 460.3 439.5 C 456.1 448.4 458.3 458.6 447.4 461.5 C 429.2 461.5 436.7 440.9 441.2 430.7 C 449.1 412.9 463.6 398.8 481.7 391.6 Z"/>
<path fill="#ecfdf5" d="M 658 211.4 C 688 212.6 719.9 223.2 745.5 238.7 C 790.6 266.2 823.1 310.4 835.9 361.7 L 831.8 362.6 C 827.6 363.5 821.6 365.3 817.3 366.4 C 813 346.5 802 324.1 790.7 307.2 C 761.4 263.4 709.3 233.5 656.7 229.9 C 657.1 223.7 657.6 217.5 658 211.4 Z"/>
<path fill="#ecfdf5" d="M 655.3 255.5 C 691.6 258 725.8 273.6 751.3 299.5 C 767.7 316.1 780.2 336.1 788 358.1 C 789.5 362.4 791.7 368.1 791.7 372.5 C 790.6 373.6 788.7 373.9 787.1 374.2 C 782.6 375.3 778.1 376.4 773.6 377.3 C 768.7 357.4 759.4 338.9 746.4 323 C 722.7 294 691.5 278.4 654.5 274.6 L 655.3 255.5 Z"/>
<path fill="#ecfdf5" d="M 653 300.5 C 679 302.9 700.5 312 719.2 330.8 C 731 342.8 740.1 357.4 745.6 373.3 C 746.7 376.4 748.2 380.4 748.2 383.6 C 747.1 384.7 745.7 384.7 744.2 384.9 L 730.3 388.4 C 720.1 349.6 692 324.8 652.4 319.4 C 652.7 313.1 652.9 306.8 653 300.5 Z"/>
</svg>